<?xml version="1.0" encoding="utf-8"?>
<!-- Generator: Adobe Illustrator 19.2.0, SVG Export Plug-In . SVG Version: 6.00 Build 0)  -->
<svg version="1.1" id="Layer_1" xmlns="http://www.w3.org/2000/svg" xmlns:xlink="http://www.w3.org/1999/xlink" x="0px" y="0px"
	 viewBox="0 0 854.9 360" style="enable-background:new 0 0 854.9 360;" xml:space="preserve">
<style type="text/css">
	.st0{fill:#1877F2;}
</style>
<path class="st0" d="M181.3,130c-4.5-0.9-10.6-1.6-14.4-1.6c-10.4,0-11,4.5-11,11.7V153h25.9l-2.3,26.6h-23.6v80.8h-32.4v-80.8
	h-16.7V153h16.7v-16.4c0-22.5,10.6-35.1,37.1-35.1c9.2,0,16,1.4,24.8,3.2L181.3,130z"/>
<path class="st0" d="M256.4,260.3l-2.3-7c-12.6,7-23.9,9.2-31.3,9.2c-20.3,0-28.6-14.6-28.6-33.3c0-22.1,10.1-30.8,32.6-30.8h23.6
	v-8.3c0-11.3-2-15.1-19.4-15.1c-9.7,0-19.4,1.1-29.7,3.1l-4.3-24.3c10.4-3.2,26.8-5.4,39.4-5.4c38,0,46.4,11.5,46.4,41.9v70H256.4z
	 M250.6,220.9h-15.5c-7,0-9.7,1.8-9.7,7.9s2.5,8.6,8.8,8.6c6.8,0,11.5-1.6,16.4-3.8V220.9z"/>
<path class="st0" d="M335.6,218.4c0,11.3,4.7,16.4,17.8,16.4c8.3,0,14.6-0.9,22.5-2.7l4.1,27c-11,2.5-18.9,3.4-26.6,3.4
	c-35.6,0-50.2-13.3-50.2-44.6v-25c0-31.3,14.6-44.6,50.2-44.6c7.7,0,15.5,0.9,26.6,3.4l-4.1,27c-6.8-1.6-16.2-2.7-22.5-2.7
	c-13.1,0-17.8,5.2-17.8,16.4V218.4z"/>
<path class="st0" d="M438.4,262.5c-20.9,0-33.1-7.9-33.1-28.1v-57.6h-14.9v-26.1h14.9v-26.3l32.4-4.5v30.8h25l-1.8,26.1h-23.2v53.1
	c0,4.5,2.7,6.1,6.8,6.1c3.6,0,8.8-0.4,13.5-2l3.8,24.5C454.6,261,445.9,262.5,438.4,262.5z"/>
<path class="st0" d="M482.8,137v-34.4h32.4V137H482.8z M482.8,260.3V150.7h32.4v109.6H482.8z"/>
<path class="st0" d="M606.7,260.3h-41.4l-34.4-109.6h32.9l22.3,77.6l22.3-77.6h32.9L606.7,260.3z"/>
<path class="st0" d="M683.7,216.9v3.2c0,12.6,5,16,19.8,16c10.1,0,23.6-1.8,33.3-4.7l4.7,24.3c-9.9,3.6-25.9,7-41.2,7
	c-35.6,0-49.1-17.5-49.1-44.6v-25.7c0-23.6,10.6-43.9,47-43.9s44.3,21.6,44.3,45.5v23H683.7z M712,187.8c0-7.6-2.3-14-13.5-14
	c-11.3,0-14.9,6.3-14.9,14v4.7H712V187.8z"/>
</svg>
